<?xml version="1.0" encoding="UTF-8"?>
<!DOCTYPE svg PUBLIC "-//W3C//DTD SVG 1.1//EN" "http://www.w3.org/Graphics/SVG/1.1/DTD/svg11.dtd">
<svg version="1.1" xmlns="http://www.w3.org/2000/svg" xmlns:xlink="http://www.w3.org/1999/xlink" x="0" y="0" width="360.258" height="283.623" viewBox="0, 0, 360.258, 283.623">
  <g id="layer1">
    <path d="M311.25,7.5 L11.25,232.5 L311.25,232.5 z" fill-opacity="0" stroke="#000000" stroke-width="7.5" id="polygon1267"/>
    <path d="M273.75,232.5 L273.75,195 L311.25,195" fill-opacity="0" stroke="#000000" stroke-width="7.5" id="polyline1269"/>
  </g>
  <g id="layer2">
    <path d="M57.123,197.816 C63.199,208.087 66.687,220.071 66.687,232.869" fill-opacity="0" stroke="#000000" stroke-width="7.5" stroke-linejoin="round" id="path1286"/>
  </g>
  <g id="layer3">
    <path d="M102.706,204.526 L88.183,204.526 Q86.937,211.552 88.14,215.011 Q89.322,218.47 92.996,218.47 Q96.669,218.47 99.076,215.011 Q101.482,211.552 102.706,204.526 z M103.158,201.605 Q103.716,196.599 102.792,193.849 Q101.632,190.39 97.894,190.39 Q94.22,190.39 91.835,193.849 Q89.945,196.599 88.763,201.605 z M92.523,221.069 Q85.24,221.069 81.867,216.644 Q78.515,212.218 79.869,204.441 Q81.244,196.663 86.164,192.237 Q91.083,187.79 98.345,187.79 Q105.65,187.79 109.001,192.216 Q112.374,196.642 110.999,204.441 Q109.646,212.218 104.726,216.644 Q99.806,221.069 92.523,221.069 z" fill="#000000" id="path2017"/>
  </g>
  <g id="g1963">
    <g id="text1961">
      <path d="M101.699,260.227 Q101.647,259.172 100.75,259.172 Q98.623,259.172 96.549,261.984 Q95.6,263.285 94.826,267.627 Q94.264,270.879 94.668,272.145 Q95.073,273.393 96.602,273.393 Q98.061,273.393 98.975,271.934 Q99.907,270.475 100.469,267.205 z M107.078,257.502 L104.301,273.498 L106.41,273.463 L106.041,275.625 L99.01,275.625 L99.414,273.252 Q97.674,276.135 94.598,276.135 Q91.539,276.135 90.186,273.902 Q88.832,271.652 89.518,267.75 Q90.203,263.83 93.227,260.438 Q96.83,256.43 101.629,256.43 Q106.375,256.43 107.078,257.502 z" fill="#000000" id="path2020"/>
      <path d="M122.442,267.205 L122.776,265.359 Q123.074,263.619 123.074,262.389 Q123.074,261.316 122.846,260.631 Q122.336,259.172 120.666,259.172 Q118.926,259.172 117.959,260.719 Q116.992,262.248 116.289,266.273 Q115.85,268.752 115.85,270.281 Q115.85,271.248 116.026,271.846 Q116.465,273.393 118.188,273.393 Q119.84,273.393 120.86,271.934 Q121.879,270.475 122.442,267.205 z M131.354,248.273 L126.573,275.625 L120.983,275.625 L121.387,273.252 Q120.42,274.711 119.084,275.432 Q117.748,276.135 115.973,276.135 Q112.405,276.135 110.823,273.498 Q109.768,271.74 109.768,269.139 Q109.768,267.82 110.032,266.273 Q110.84,261.668 113.336,259.049 Q115.85,256.43 119.436,256.43 Q121.194,256.43 122.283,257.15 Q123.373,257.854 123.83,259.313 L125.395,250.383 L122.987,250.383 L123.356,248.273 z" fill="#000000" id="path2022"/>
      <path d="M137.401,251.648 Q137.647,250.225 138.684,249.258 Q139.739,248.273 141.039,248.273 Q142.27,248.273 142.99,249.258 Q143.518,249.996 143.518,250.963 Q143.518,251.279 143.448,251.648 Q143.201,253.037 142.147,254.022 Q141.11,254.988 139.862,254.988 Q138.578,254.988 137.858,254.022 Q137.33,253.301 137.33,252.334 Q137.33,252 137.401,251.648 z M136.75,259.066 L134.36,259.066 L134.729,256.939 L142.709,256.939 L139.071,277.822 Q138.561,280.688 136.469,282.147 Q134.395,283.623 130.826,283.623 Q129.877,283.623 128.84,283.447 Q127.785,283.272 126.696,282.938 L127.399,278.965 L129.174,278.982 Q129.104,279.509 129.104,279.931 Q129.104,280.617 129.315,281.003 Q129.684,281.636 130.721,281.636 Q131.881,281.636 132.479,280.81 Q133.076,279.984 133.463,277.822 z" fill="#000000" id="path2024"/>
      <path d="M157.106,260.227 Q157.053,259.172 156.157,259.172 Q154.03,259.172 151.955,261.984 Q151.006,263.285 150.233,267.627 Q149.67,270.879 150.074,272.145 Q150.479,273.393 152.008,273.393 Q153.467,273.393 154.381,271.934 Q155.313,270.475 155.875,267.205 z M162.485,257.502 L159.707,273.498 L161.817,273.463 L161.448,275.625 L154.416,275.625 L154.821,273.252 Q153.08,276.135 150.004,276.135 Q146.946,276.135 145.592,273.902 Q144.239,271.652 144.924,267.75 Q145.61,263.83 148.633,260.438 Q152.237,256.43 157.035,256.43 Q161.782,256.43 162.485,257.502 z" fill="#000000" id="path2026"/>
      <path d="M182.489,269.789 Q181.328,272.988 179.184,274.57 Q177.057,276.135 173.858,276.135 Q169.358,276.135 167.354,273.551 Q165.912,271.723 165.912,268.805 Q165.912,267.627 166.158,266.273 Q166.967,261.633 169.85,259.031 Q172.75,256.43 177.074,256.43 Q178.832,256.43 180.555,256.799 Q182.278,257.168 184,257.906 L183.104,263.092 L181.328,263.092 Q181.364,262.688 181.364,262.318 Q181.364,260.525 180.696,259.559 Q179.905,258.416 178.094,258.416 Q175.756,258.416 174.455,260.174 Q173.155,261.932 172.399,266.273 Q172.012,268.541 172.012,270.105 Q172.012,271.477 172.311,272.32 Q172.961,274.148 175.141,274.148 Q176.828,274.148 178.041,273.023 Q179.272,271.898 179.852,269.789 z" fill="#000000" id="path2028"/>
      <path d="M198.186,261 Q198.186,258.416 196.217,258.416 Q194.723,258.416 193.826,259.998 Q192.948,261.562 192.139,266.502 Q192.139,266.502 192.49,266.502 Q197.324,266.502 198.08,262.23 Q198.186,261.562 198.186,261 z M191.77,268.594 Q191.664,269.191 191.664,270.439 Q191.681,274.148 194.934,274.148 Q196.744,274.148 198.063,273.076 Q199.381,272.004 200.032,269.965 L202.668,269.965 Q201.42,273.146 199.135,274.641 Q196.85,276.135 193.211,276.135 Q188.852,276.135 186.971,273.586 Q185.653,271.793 185.653,268.963 Q185.653,267.75 185.916,266.326 Q186.725,261.633 189.572,259.031 Q192.42,256.43 196.586,256.43 Q199.61,256.43 201.701,257.748 Q203.811,259.049 203.811,261.422 Q203.811,261.896 203.705,262.406 Q202.703,268.102 191.77,268.594 z" fill="#000000" id="path2030"/>
      <path d="M206.992,275.625 L209.893,259.066 L207.502,259.066 L207.871,256.939 L215.869,256.939 L215.412,259.576 Q216.713,257.906 218.137,257.168 Q219.561,256.43 221.547,256.43 Q224.377,256.43 225.502,258.293 Q226.223,259.471 226.223,261.369 Q226.223,262.441 225.994,263.742 L224.289,273.498 L226.68,273.498 L226.311,275.625 L218.313,275.625 L220.422,263.566 Q220.633,262.336 220.633,261.492 Q220.633,260.719 220.457,260.262 Q220.071,259.348 218.717,259.348 Q217.03,259.348 215.992,260.736 Q214.973,262.107 214.446,265.113 L212.6,275.625 z" fill="#000000" id="path2032"/>
      <path d="M232.744,259.066 L230.319,259.066 L230.688,256.939 L233.114,256.939 L234.133,251.139 L239.74,251.139 L238.721,256.939 L243.379,256.939 L243.01,259.066 L238.352,259.066 L236.348,270.51 Q236.067,272.074 236.067,272.865 Q236.067,273.34 236.155,273.551 Q236.401,274.148 237.315,274.148 Q238.334,274.148 238.95,273.393 Q239.582,272.637 239.881,271.055 L242.254,271.055 Q241.604,273.867 240.162,275.01 Q238.739,276.135 235.698,276.135 Q232.235,276.135 231.198,274.922 Q230.547,274.148 230.547,272.531 Q230.547,271.652 230.74,270.51 z" fill="#000000" id="path2034"/>
    </g>
    <g id="text1969">
      <path d="M334.383,54.947 Q334.383,56.723 336.07,57.742 Q337.758,58.762 342.258,59.535 Q345.194,60.063 346.934,60.063 Q347.848,60.063 348.445,59.904 Q350.115,59.5 350.115,57.707 Q350.115,55.914 348.41,54.895 Q346.723,53.875 342.258,53.084 Q339.375,52.592 337.652,52.592 Q336.686,52.592 336.088,52.732 Q334.383,53.172 334.383,54.947 z M335.016,62.031 Q332.397,59.043 332.397,54.596 Q332.397,50.166 335.016,48.092 Q336.914,46.615 339.832,46.615 Q340.957,46.615 342.258,46.844 Q346.881,47.652 349.483,50.623 Q352.102,53.611 352.102,58.059 Q352.102,62.506 349.5,64.58 Q347.619,66.057 344.701,66.057 Q343.559,66.057 342.258,65.828 Q337.652,65.02 335.016,62.031 z" fill="#000000" id="path2000"/>
      <path d="M343.172,76.621 L341.326,76.287 Q339.569,75.988 338.338,75.988 Q337.283,75.988 336.598,76.217 Q335.139,76.709 335.139,78.397 Q335.139,80.119 336.686,81.086 Q338.233,82.07 342.258,82.773 Q344.754,83.195 346.283,83.195 Q347.233,83.195 347.813,83.037 Q349.36,82.598 349.36,80.875 Q349.36,79.205 347.901,78.186 Q346.442,77.184 343.172,76.621 z M349.465,72.121 L349.465,69.713 L351.592,70.082 L351.592,78.08 L349.219,77.676 Q350.678,78.643 351.381,79.961 Q352.102,81.297 352.102,83.072 Q352.102,86.658 349.465,88.258 Q347.725,89.33 345.106,89.33 Q343.787,89.33 342.258,89.066 Q337.67,88.258 335.033,85.727 Q332.397,83.213 332.397,79.609 Q332.397,77.852 333.1,76.762 Q333.821,75.69 335.279,75.232 L325.418,73.51 L325.418,67.902 z" fill="#000000" id="path2002"/>
      <path d="M343.172,99.262 L341.326,98.928 Q339.569,98.629 338.338,98.629 Q337.283,98.629 336.598,98.857 Q335.139,99.35 335.139,101.037 Q335.139,102.76 336.686,103.727 Q338.233,104.711 342.258,105.414 Q344.754,105.836 346.283,105.836 Q347.233,105.836 347.813,105.678 Q349.36,105.238 349.36,103.516 Q349.36,101.846 347.901,100.826 Q346.442,99.824 343.172,99.262 z M349.465,94.762 L349.465,92.354 L351.592,92.723 L351.592,100.721 L349.219,100.316 Q350.678,101.283 351.381,102.602 Q352.102,103.938 352.102,105.713 Q352.102,109.299 349.465,110.898 Q347.725,111.971 345.106,111.971 Q343.787,111.971 342.258,111.707 Q337.67,110.899 335.033,108.367 Q332.397,105.854 332.397,102.25 Q332.397,100.492 333.1,99.402 Q333.821,98.33 335.279,97.873 L325.418,96.15 L325.418,90.543 z" fill="#000000" id="path2004"/>
      <path d="M334.383,121.815 Q334.383,123.59 336.07,124.609 Q337.758,125.629 342.258,126.402 Q345.194,126.93 346.934,126.93 Q347.848,126.93 348.445,126.772 Q350.115,126.367 350.115,124.574 Q350.115,122.781 348.41,121.762 Q346.723,120.742 342.258,119.951 Q339.375,119.459 337.652,119.459 Q336.686,119.459 336.088,119.6 Q334.383,120.039 334.383,121.815 z M335.016,128.898 Q332.397,125.91 332.397,121.463 Q332.397,117.033 335.016,114.959 Q336.914,113.482 339.832,113.482 Q340.957,113.482 342.258,113.711 Q346.881,114.52 349.483,117.49 Q352.102,120.479 352.102,124.926 Q352.102,129.373 349.5,131.447 Q347.619,132.924 344.701,132.924 Q343.559,132.924 342.258,132.695 Q337.652,131.887 335.016,128.898 z" fill="#000000" id="path2006"/>
      <path d="M338.672,134.857 L338.672,136.65 Q338.408,136.633 338.162,136.633 Q336.44,136.633 335.402,137.565 Q334.383,138.497 334.383,140.378 Q334.383,144.069 336.932,144.508 Q337.266,144.579 337.758,144.579 Q338.233,144.579 338.76,144.174 Q339.287,143.77 339.744,142.188 L340.395,139.991 Q341.115,137.512 342.258,136.721 Q343.401,135.93 344.807,135.93 Q345.404,135.93 346.09,136.036 Q349.131,136.581 350.608,138.725 Q352.102,140.887 352.102,144.333 Q352.102,147.795 350.977,151.557 L346.266,150.713 L346.266,148.921 Q346.6,148.973 346.899,148.973 Q350.115,148.973 350.115,145.405 Q350.115,141.819 347.742,141.397 Q347.461,141.344 347.057,141.344 Q345.914,141.344 345.334,143.296 L344.684,145.475 Q343.752,148.622 342.574,149.483 Q341.414,150.362 339.902,150.362 Q339.287,150.362 338.567,150.239 Q335.402,149.694 333.891,147.391 Q332.397,145.106 332.397,140.817 Q332.397,137.706 333.451,133.962 z" fill="#000000" id="path2008"/>
      <path d="M356.883,156.953 Q358.307,157.199 359.274,158.254 Q360.258,159.309 360.258,160.592 Q360.258,161.84 359.274,162.543 Q358.553,163.07 357.586,163.07 Q357.252,163.07 356.883,163 Q355.494,162.772 354.51,161.717 Q353.543,160.662 353.543,159.414 Q353.543,158.131 354.51,157.428 Q355.231,156.883 356.197,156.883 Q356.531,156.883 356.883,156.953 z M335.033,159.256 L335.033,161.647 L332.906,161.277 L332.906,153.279 L349.465,156.18 L349.465,153.789 L351.592,154.158 L351.592,162.139 z" fill="#000000" id="path2010"/>
      <path d="M349.465,168.484 L349.465,166.059 L351.592,166.428 L351.592,168.854 L357.393,169.873 L357.393,175.481 L351.592,174.461 L351.592,179.119 L349.465,178.75 L349.465,174.092 L338.022,172.088 Q336.457,171.807 335.666,171.807 Q335.192,171.807 334.981,171.895 Q334.383,172.141 334.383,173.055 Q334.383,174.074 335.139,174.69 Q335.895,175.322 337.477,175.621 L337.477,177.994 Q334.664,177.344 333.522,175.902 Q332.397,174.479 332.397,171.438 Q332.397,167.975 333.61,166.938 Q334.383,166.287 336,166.287 Q336.879,166.287 338.022,166.481 z" fill="#000000" id="path2012"/>
      <path d="M347.531,193.059 Q350.115,193.059 350.115,191.09 Q350.115,189.596 348.533,188.699 Q346.969,187.82 342.029,187.012 Q342.029,187.012 342.029,187.363 Q342.029,192.197 346.301,192.953 Q346.969,193.059 347.531,193.059 z M339.938,186.643 Q339.34,186.537 338.092,186.537 Q334.383,186.554 334.383,189.807 Q334.383,191.617 335.455,192.936 Q336.528,194.254 338.567,194.904 L338.567,197.541 Q335.385,196.293 333.891,194.008 Q332.397,191.723 332.397,188.084 Q332.397,183.725 334.945,181.844 Q336.738,180.525 339.569,180.525 Q340.781,180.525 342.205,180.789 Q346.899,181.598 349.5,184.445 Q352.102,187.293 352.102,191.459 Q352.102,194.482 350.783,196.574 Q349.483,198.684 347.11,198.684 Q346.635,198.684 346.125,198.578 Q340.43,197.576 339.938,186.643 z" fill="#000000" id="path2014"/>
    </g>
    <g id="text1975">
      <path d="M60.584,167.049 L49.004,144.19 L47.005,145.685 L46.037,143.774 L52.528,138.922 L57.704,149.164 Q57.746,147.048 58.445,145.604 Q59.157,144.15 60.734,142.971 Q63.001,141.276 65.017,142.095 Q66.3,142.607 67.436,144.128 Q68.078,144.986 68.674,146.165 L73.15,155 L75.079,153.558 L76.056,155.483 L69.636,160.282 L64.106,149.361 Q63.552,148.238 63.047,147.562 Q62.584,146.943 62.155,146.693 Q61.298,146.192 60.228,146.992 Q58.863,148.013 58.863,149.746 Q58.868,151.455 60.245,154.178 L65.061,163.702 z" fill="#000000" id="path1979"/>
      <path d="M87.743,152.738 L71.351,138.326 L69.887,139.42 L68.909,137.496 L74.414,133.381 L88.261,145.591 Q87.964,142.17 86.967,138.811 Q85.974,135.427 83.1,129.587 L81.288,130.92 L80.31,128.996 L83.932,126.267 Q84.97,128.301 86.242,130.971 Q89.388,137.529 89.959,141.228 Q91.414,150.895 89.376,154.393 Q88.223,156.374 85.802,158.185 Q84.605,159.079 82.421,159.768 L80.633,156.232 L82.065,155.183 Q82.276,155.552 82.486,155.834 Q83.213,156.806 84.035,156.673 Q84.408,156.614 85.02,156.288 Q85.348,156.109 85.657,155.878 Q87.065,154.825 87.743,152.738 z" fill="#000000" id="path1981"/>
      <path d="M96.048,127.721 L96.885,129.399 Q97.698,130.986 98.435,131.972 Q99.067,132.816 99.66,133.229 Q100.928,134.103 102.279,133.092 Q103.659,132.061 103.507,130.243 Q103.37,128.415 101.523,124.769 Q100.366,122.518 99.45,121.293 Q98.882,120.533 98.408,120.163 Q97.13,119.187 95.75,120.218 Q94.413,121.218 94.47,122.997 Q94.541,124.766 96.048,127.721 z M88.676,125.375 L86.747,126.817 L85.769,124.892 L92.175,120.104 L93.272,122.246 Q93.173,120.499 93.808,119.146 Q94.446,117.769 95.868,116.706 Q98.74,114.559 101.6,115.713 Q103.501,116.465 105.069,118.563 Q105.858,119.619 106.563,121.002 Q108.662,125.16 108.214,128.788 Q107.779,132.405 104.893,134.562 Q103.485,135.615 102.191,135.704 Q100.901,135.769 99.661,134.874 L104.186,143.804 L99.695,147.161 z" fill="#000000" id="path1983"/>
      <path d="M119.601,121.088 Q121.023,120.025 120.829,118.062 Q120.635,116.1 118.56,112.033 Q117.225,109.366 116.183,107.972 Q115.636,107.24 115.151,106.856 Q113.827,105.761 112.391,106.834 Q110.955,107.908 111.16,109.884 Q111.353,111.846 113.393,115.896 Q114.725,118.499 115.756,119.879 Q116.335,120.653 116.806,121.048 Q118.179,122.151 119.601,121.088 z M124.895,116.339 Q124.07,120.226 120.508,122.889 Q116.96,125.541 113.731,124.685 Q111.411,124.049 109.664,121.712 Q108.991,120.811 108.395,119.632 Q106.275,115.445 107.096,111.583 Q107.922,107.696 111.484,105.033 Q115.046,102.37 118.265,103.212 Q120.573,103.834 122.32,106.171 Q123.005,107.087 123.6,108.265 Q125.71,112.438 124.896,116.339 z" fill="#000000" id="path1985"/>
      <path d="M123.509,99.335 L121.566,100.788 L120.588,98.863 L122.531,97.411 L119.874,92.154 L124.366,88.797 L127.022,94.053 L130.753,91.264 L131.731,93.189 L128,95.978 L133.247,106.343 Q133.958,107.765 134.432,108.398 Q134.716,108.778 134.913,108.895 Q135.468,109.226 136.2,108.679 Q137.016,108.068 137.056,107.095 Q137.111,106.11 136.403,104.664 L138.304,103.243 Q139.467,105.885 138.996,107.664 Q138.529,109.417 136.094,111.238 Q133.32,113.311 131.763,112.961 Q130.779,112.731 129.811,111.436 Q129.285,110.732 128.756,109.701 z" fill="#000000" id="path1987"/>
      <path d="M144.349,86.17 Q142.802,84.101 141.225,85.28 Q140.028,86.174 140.258,87.978 Q140.49,89.757 142.8,94.198 Q142.8,94.198 143.082,93.987 Q146.953,91.093 145.001,87.219 Q144.686,86.621 144.349,86.17 z M143.757,96.094 Q144.03,96.636 144.778,97.636 Q147.012,100.596 149.617,98.649 Q151.067,97.565 151.481,95.916 Q151.895,94.268 151.195,92.246 L153.307,90.667 Q154.212,93.963 153.277,96.527 Q152.341,99.092 149.427,101.271 Q145.935,103.881 142.902,102.966 Q140.773,102.319 139.078,100.052 Q138.352,99.081 137.711,97.783 Q135.548,93.539 136.272,89.751 Q136.995,85.962 140.331,83.468 Q142.753,81.657 145.218,81.461 Q147.686,81.24 149.107,83.14 Q149.391,83.521 149.612,83.992 Q152.219,89.154 143.757,96.094 z" fill="#000000" id="path1989"/>
      <path d="M160.159,92.611 L152.568,77.612 L150.653,79.044 L149.675,77.119 L156.081,72.33 L157.294,74.716 Q157.336,72.599 158.034,71.156 Q158.733,69.712 160.324,68.522 Q162.59,66.828 164.607,67.647 Q165.889,68.159 167.026,69.679 Q167.668,70.538 168.264,71.717 L172.74,80.551 L174.654,79.12 L175.632,81.045 L169.226,85.833 L163.696,74.912 Q163.128,73.8 162.623,73.124 Q162.16,72.505 161.745,72.244 Q160.888,71.744 159.804,72.554 Q158.452,73.564 158.453,75.298 Q158.458,77.006 159.835,79.73 L164.651,89.254 z" fill="#000000" id="path1991"/>
      <path d="M183.803,51.607 L191.394,66.606 L193.309,65.175 L194.287,67.099 L187.867,71.898 L186.654,69.513 Q186.626,71.619 185.928,73.063 Q185.23,74.506 183.639,75.696 Q181.372,77.39 179.366,76.586 Q178.073,76.06 176.936,74.539 Q176.294,73.68 175.698,72.502 L171.223,63.667 L169.308,65.098 L168.33,63.174 L174.736,58.385 L179.751,68.265 Q180.757,70.256 181.462,71.199 Q181.883,71.763 182.193,71.97 Q183.046,72.496 184.158,71.664 Q185.51,70.654 185.495,68.931 Q185.494,67.198 184.106,64.461 L179.298,54.975 z" fill="#000000" id="path1993"/>
      <path d="M193.707,60.334 L195.143,59.261 Q195.287,59.482 195.434,59.679 Q196.466,61.059 197.833,61.332 Q199.189,61.591 200.696,60.465 Q203.652,58.254 202.478,55.95 Q202.335,55.64 202.04,55.246 Q201.756,54.866 201.116,54.686 Q200.477,54.505 198.936,55.087 L196.787,55.881 Q194.37,56.788 193.052,56.346 Q191.735,55.905 190.893,54.779 Q190.535,54.3 190.209,53.688 Q188.824,50.926 189.658,48.459 Q190.495,45.968 193.255,43.905 Q196.028,41.832 199.715,40.48 L201.859,44.759 L200.423,45.832 Q200.266,45.533 200.087,45.294 Q198.161,42.717 195.303,44.854 Q192.431,47.001 193.513,49.154 Q193.64,49.411 193.882,49.735 Q194.566,50.65 196.476,49.946 L198.611,49.162 Q201.689,48.024 203.084,48.452 Q204.483,48.855 205.388,50.066 Q205.756,50.559 206.089,51.209 Q207.547,54.07 206.608,56.66 Q205.672,59.224 202.237,61.792 Q199.745,63.655 196.115,65.052 z" fill="#000000" id="path1995"/>
      <path d="M213.167,34.725 Q211.62,32.656 210.043,33.834 Q208.847,34.729 209.076,36.533 Q209.309,38.312 211.618,42.752 Q211.618,42.752 211.9,42.542 Q215.772,39.648 213.82,35.774 Q213.504,35.176 213.167,34.725 z M212.575,44.649 Q212.849,45.191 213.596,46.19 Q215.831,49.151 218.435,47.203 Q219.885,46.119 220.299,44.471 Q220.713,42.823 220.013,40.8 L222.125,39.222 Q223.031,42.517 222.095,45.082 Q221.159,47.647 218.245,49.826 Q214.753,52.436 211.721,51.521 Q209.591,50.874 207.897,48.607 Q207.171,47.636 206.529,46.337 Q204.367,42.094 205.09,38.306 Q205.813,34.517 209.15,32.022 Q211.571,30.212 214.036,30.016 Q216.504,29.795 217.925,31.695 Q218.209,32.075 218.43,32.547 Q221.038,37.708 212.575,44.649 z" fill="#000000" id="path1997"/>
    </g>
  </g>
</svg>
